<?xml version="1.0" encoding="iso-8859-1"?>
<!-- Generator: Adobe Illustrator 19.0.0, SVG Export Plug-In . SVG Version: 6.00 Build 0)  -->
<svg version="1.1" id="Capa_1" xmlns="http://www.w3.org/2000/svg" xmlns:xlink="http://www.w3.org/1999/xlink" x="0px" y="0px"
	 viewBox="0 0 512 512" style="enable-background:new 0 0 512 512;" xml:space="preserve">
<path style="fill:#F7D139;" d="M510.009,257.991C510.009,397.385,397.216,512,256,512C115.151,512,1.991,397.731,1.991,257.991
	C1.991,117.706,115.715,3.983,256,3.983C396.547,3.983,510.009,117.946,510.009,257.991z"/>
<path style="fill:#5F82C3;" d="M486.676,48.358v316.05C446.567,451.244,358.81,512,256,512c-74.052,0-140.453-31.59-186.772-81.861
	c-17.855-19.37-32.73-41.521-43.905-65.7V48.358C25.324,21.649,46.973,0,73.692,0h364.617C465.027,0,486.676,21.649,486.676,48.358z
	"/>
<path style="fill:#6E96DC;" d="M486.676,48.358v316.05C446.567,451.244,358.81,512,256,512c-74.052,0-140.453-31.59-186.772-81.861
	V48.358C69.228,21.649,90.877,0,117.596,0h320.712C465.027,0,486.676,21.649,486.676,48.358z"/>
<path style="fill:#A5CDFA;" d="M486.676,56.438v307.969C446.567,451.244,358.81,512,256,512c-74.052,0-140.453-31.59-186.772-81.861
	c-17.855-19.37-32.73-41.521-43.905-65.7V56.438H486.676z"/>
<g>
	<path style="fill:#415A87;" d="M413.063,24.357H57.646c-4.33,0-7.84,3.51-7.84,7.84c0,4.33,3.51,7.84,7.84,7.84h355.418
		c4.33,0,7.84-3.51,7.84-7.84S417.393,24.357,413.063,24.357z"/>
	<circle style="fill:#415A87;" cx="448.255" cy="32.197" r="13.938"/>
</g>
<path style="fill:#91B9FF;" d="M69.228,56.438v373.701c-17.855-19.37-32.73-41.521-43.905-65.7V56.438H69.228z"/>
<path style="fill:#E6E6E6;" d="M344.652,102.782v159.102c0,10.883-8.818,19.687-19.701,19.687H88.911
	c-10.87,0-19.687-8.804-19.687-19.687V102.782c0-10.87,8.817-19.687,19.687-19.687h236.04
	C335.835,83.095,344.652,91.912,344.652,102.782z"/>
<path style="fill:#A0A0A5;" d="M279.4,97.462V281.57H134.476V97.462c0-4.226,3.43-7.643,7.643-7.643h129.64
	C275.984,89.819,279.4,93.235,279.4,97.462z"/>
<path style="fill:#7D8287;" d="M242.045,221.237v60.337h-70.216v-60.337c0-15.795,10.579-29.228,24.984-33.608
	c0.69-0.209,1.38-0.397,2.091-0.564c2.582-0.606,5.279-0.93,8.039-0.93c2.749,0,5.446,0.324,8.028,0.93
	c0.711,0.167,1.401,0.355,2.091,0.564c5.603,1.704,10.631,4.767,14.666,8.823C238.104,202.808,242.045,211.588,242.045,221.237z"/>
<path style="fill:#5A5F64;" d="M214.97,187.065v94.51h-16.067v-94.51c2.582-0.606,5.279-0.93,8.039-0.93
	C209.691,186.134,212.388,186.458,214.97,187.065z"/>
<path style="fill:#EBEBF0;" d="M175.513,113.106v50.033c0,3.689-3.001,6.69-6.69,6.69h-19.024c-3.699,0-6.701-3.001-6.701-6.69
	v-50.033c0-3.689,3.001-6.69,6.701-6.69h19.024C172.51,106.416,175.513,109.418,175.513,113.106z"/>
<path style="fill:#D2D2D7;" d="M175.513,142.699v20.441c0,3.689-3.001,6.69-6.69,6.69h-19.024c-3.699,0-6.701-3.001-6.701-6.69
	v-20.441c0-3.689,3.001-6.69,6.701-6.69h19.024C172.51,136.009,175.513,139.011,175.513,142.699z"/>
<path style="fill:#EBEBF0;" d="M223.073,113.106v50.033c0,3.689-3.001,6.69-6.69,6.69h-19.024c-3.699,0-6.701-3.001-6.701-6.69
	v-50.033c0-3.689,3.001-6.69,6.701-6.69h19.024C220.071,106.416,223.073,109.418,223.073,113.106z"/>
<path style="fill:#D2D2D7;" d="M223.073,142.699v20.441c0,3.689-3.001,6.69-6.69,6.69h-19.024c-3.699,0-6.701-3.001-6.701-6.69
	v-20.441c0-3.689,3.001-6.69,6.701-6.69h19.024C220.071,136.009,223.073,139.011,223.073,142.699z"/>
<path style="fill:#EBEBF0;" d="M270.633,113.106v50.033c0,3.689-3.001,6.69-6.69,6.69h-19.024c-3.699,0-6.701-3.001-6.701-6.69
	v-50.033c0-3.689,3.001-6.69,6.701-6.69h19.024C267.632,106.416,270.633,109.418,270.633,113.106z"/>
<path style="fill:#D2D2D7;" d="M270.633,142.699v20.441c0,3.689-3.001,6.69-6.69,6.69h-19.024c-3.699,0-6.701-3.001-6.701-6.69
	v-20.441c0-3.689,3.001-6.69,6.701-6.69h19.024C267.632,136.009,270.633,139.011,270.633,142.699z"/>
<path style="fill:#FFE13C;" d="M111.733,320.48l-5.205,5.074c-1.083,1.053-1.585,2.577-1.323,4.072l1.223,7.17
	c0.652,3.76-3.299,6.629-6.668,4.854l-6.438-3.389c-0.201-0.1-0.401-0.19-0.612-0.26c-1.203-0.421-2.537-0.341-3.681,0.26
	l-6.438,3.389c-3.369,1.775-7.321-1.093-6.668-4.854l1.223-7.17c0.26-1.494-0.24-3.019-1.323-4.072l-5.205-5.074
	c-2.727-2.668-1.223-7.301,2.548-7.852l7.2-1.043c1.494-0.221,2.797-1.163,3.47-2.517l3.219-6.528c1.685-3.419,6.559-3.419,8.243,0
	l1.725,3.5l1.494,3.028c0.672,1.354,1.976,2.297,3.47,2.517l7.2,1.043C112.956,313.179,114.46,317.812,111.733,320.48z"/>
<path style="fill:#FFF573;" d="M111.733,320.48l-5.205,5.074c-1.083,1.053-1.585,2.577-1.323,4.072l1.223,7.17
	c0.652,3.76-3.299,6.629-6.668,4.854l-6.438-3.389c-0.201-0.1-0.401-0.19-0.612-0.26c-1.474-3.751-2.286-7.832-2.286-12.115
	c0-7.451,2.457-14.31,6.598-19.846l1.494,3.028c0.672,1.354,1.976,2.297,3.469,2.517l7.2,1.043
	C112.956,313.179,114.46,317.812,111.733,320.48z"/>
<path style="fill:#FFE13C;" d="M170.126,320.48l-5.205,5.074c-1.083,1.053-1.585,2.577-1.323,4.072l1.223,7.17
	c0.652,3.76-3.299,6.629-6.668,4.854l-6.438-3.389c-0.201-0.1-0.401-0.19-0.612-0.26c-1.203-0.421-2.537-0.341-3.681,0.26
	l-6.438,3.389c-3.369,1.775-7.321-1.093-6.668-4.854l1.223-7.17c0.26-1.494-0.24-3.019-1.323-4.072l-5.205-5.074
	c-2.727-2.668-1.223-7.301,2.548-7.852l7.2-1.043c1.494-0.221,2.797-1.163,3.47-2.517l3.219-6.528c1.685-3.419,6.559-3.419,8.243,0
	l1.725,3.5l1.494,3.028c0.672,1.354,1.976,2.297,3.47,2.517l7.2,1.043C171.349,313.179,172.853,317.812,170.126,320.48z"/>
<path style="fill:#FFF573;" d="M170.126,320.48l-5.205,5.074c-1.083,1.053-1.585,2.577-1.323,4.072l1.223,7.17
	c0.652,3.76-3.299,6.629-6.668,4.854l-6.438-3.389c-0.201-0.1-0.401-0.19-0.612-0.26c-1.474-3.751-2.286-7.832-2.286-12.115
	c0-7.451,2.457-14.31,6.598-19.846l1.494,3.028c0.672,1.354,1.976,2.297,3.47,2.517l7.2,1.043
	C171.349,313.179,172.853,317.812,170.126,320.48z"/>
<path style="fill:#FFE13C;" d="M228.52,320.48l-5.205,5.074c-1.083,1.053-1.585,2.577-1.323,4.072l1.223,7.17
	c0.652,3.76-3.299,6.629-6.668,4.854l-6.438-3.389c-0.201-0.1-0.401-0.19-0.612-0.26c-1.203-0.421-2.537-0.341-3.681,0.26
	l-6.438,3.389c-3.369,1.775-7.321-1.093-6.668-4.854l1.223-7.17c0.26-1.494-0.24-3.019-1.323-4.072l-5.205-5.074
	c-2.727-2.668-1.223-7.301,2.548-7.852l7.2-1.043c1.494-0.221,2.797-1.163,3.47-2.517l3.219-6.528c1.685-3.419,6.559-3.419,8.243,0
	l1.725,3.5l1.494,3.028c0.672,1.354,1.976,2.297,3.47,2.517l7.2,1.043C229.743,313.179,231.247,317.812,228.52,320.48z"/>
<path style="fill:#FFF573;" d="M228.52,320.48l-5.205,5.074c-1.083,1.053-1.585,2.577-1.323,4.072l1.223,7.17
	c0.652,3.76-3.299,6.629-6.668,4.854l-6.438-3.389c-0.201-0.1-0.401-0.19-0.612-0.26c-1.474-3.751-2.286-7.832-2.286-12.115
	c0-7.451,2.457-14.31,6.598-19.846l1.494,3.028c0.672,1.354,1.976,2.297,3.469,2.517l7.2,1.043
	C229.743,313.179,231.247,317.812,228.52,320.48z"/>
<path style="fill:#FFE13C;" d="M286.913,320.48l-5.205,5.074c-1.083,1.053-1.585,2.577-1.323,4.072l1.223,7.17
	c0.652,3.76-3.299,6.629-6.668,4.854l-6.438-3.389c-0.201-0.1-0.401-0.19-0.612-0.26c-1.203-0.421-2.537-0.341-3.681,0.26
	l-6.438,3.389c-3.369,1.775-7.321-1.093-6.668-4.854l1.223-7.17c0.26-1.494-0.24-3.019-1.323-4.072l-5.205-5.074
	c-2.727-2.668-1.223-7.301,2.548-7.852l7.2-1.043c1.494-0.221,2.797-1.163,3.469-2.517l3.219-6.528c1.685-3.419,6.558-3.419,8.243,0
	l1.725,3.5l1.494,3.028c0.672,1.354,1.976,2.297,3.47,2.517l7.2,1.043C288.136,313.179,289.64,317.812,286.913,320.48z"/>
<path style="fill:#FFF573;" d="M286.913,320.48l-5.205,5.074c-1.083,1.053-1.585,2.577-1.323,4.072l1.223,7.17
	c0.652,3.76-3.299,6.629-6.668,4.854l-6.438-3.389c-0.201-0.1-0.401-0.19-0.612-0.26c-1.474-3.751-2.286-7.832-2.286-12.115
	c0-7.451,2.457-14.31,6.598-19.846l1.494,3.028c0.672,1.354,1.976,2.297,3.47,2.517l7.2,1.043
	C288.136,313.179,289.64,317.812,286.913,320.48z"/>
<path style="fill:#FFE13C;" d="M345.307,320.48l-5.205,5.074c-1.083,1.053-1.585,2.577-1.323,4.072l1.223,7.17
	c0.652,3.76-3.299,6.629-6.668,4.854l-6.438-3.389c-0.201-0.1-0.401-0.19-0.612-0.26c-1.203-0.421-2.537-0.341-3.681,0.26
	l-6.438,3.389c-3.369,1.775-7.321-1.093-6.668-4.854l1.223-7.17c0.26-1.494-0.24-3.019-1.323-4.072l-5.205-5.074
	c-2.727-2.668-1.223-7.301,2.548-7.852l7.2-1.043c1.494-0.221,2.797-1.163,3.47-2.517l3.219-6.528c1.685-3.419,6.559-3.419,8.243,0
	l1.725,3.5l1.494,3.028c0.672,1.354,1.976,2.297,3.469,2.517l7.2,1.043C346.53,313.179,348.034,317.812,345.307,320.48z"/>
<path style="fill:#FFF573;" d="M345.307,320.48l-5.205,5.074c-1.083,1.053-1.585,2.577-1.323,4.072l1.223,7.17
	c0.652,3.76-3.299,6.629-6.668,4.854l-6.438-3.389c-0.201-0.1-0.401-0.19-0.612-0.26c-1.474-3.751-2.286-7.832-2.286-12.115
	c0-7.451,2.457-14.31,6.598-19.846l1.494,3.028c0.672,1.354,1.976,2.297,3.47,2.517l7.2,1.043
	C346.53,313.179,348.034,317.812,345.307,320.48z"/>
<g>
	<path style="fill:#415A87;" d="M62.116,374.547h387.768c4.33,0,7.84-3.51,7.84-7.84c0-4.33-3.51-7.84-7.84-7.84H62.116
		c-4.33,0-7.84,3.51-7.84,7.84C54.275,371.037,57.786,374.547,62.116,374.547z"/>
	<path style="fill:#415A87;" d="M449.884,399.636H62.116c-4.33,0-7.84,3.51-7.84,7.84c0,4.33,3.51,7.84,7.84,7.84h387.768
		c4.33,0,7.84-3.51,7.84-7.84C457.724,403.146,454.214,399.636,449.884,399.636z"/>
	<path style="fill:#415A87;" d="M432.768,440.404c-5.655,5.499-11.572,10.736-17.729,15.68H96.972
		c-6.157-4.955-12.074-10.182-17.74-15.68H432.768z"/>
	<path style="fill:#415A87;" d="M377.459,481.173c-11.102,6.063-22.715,11.311-34.768,15.68h-173.35
		c-12.053-4.37-23.667-9.628-34.779-15.68H377.459z"/>
</g>
<g>
	<path style="fill:#E6E6E6;" d="M463.083,91.186v52.152c0,4.464-3.617,8.081-8.081,8.081h-74.355c-4.474,0-8.091-3.617-8.091-8.081
		V91.186c0-4.474,3.617-8.091,8.091-8.091h74.355C459.466,83.095,463.083,86.711,463.083,91.186z"/>
	<path style="fill:#E6E6E6;" d="M463.083,182.559v52.163c0,4.464-3.617,8.081-8.081,8.081h-74.355c-4.474,0-8.091-3.617-8.091-8.081
		v-52.163c0-4.464,3.617-8.081,8.091-8.081h74.355C459.466,174.479,463.083,178.096,463.083,182.559z"/>
	<path style="fill:#E6E6E6;" d="M463.083,273.943v52.163c0,4.464-3.617,8.081-8.081,8.081h-74.355c-4.474,0-8.091-3.617-8.091-8.081
		v-52.163c0-4.464,3.617-8.081,8.091-8.081h74.355C459.466,265.863,463.083,269.48,463.083,273.943z"/>
</g>
<g>
	<path style="fill:#F5F0EB;" d="M463.083,91.186v52.152c0,4.464-3.617,8.081-8.081,8.081h-47.877c-4.464,0-8.091-3.617-8.091-8.081
		V91.186c0-4.474,3.627-8.091,8.091-8.091h47.877C459.466,83.095,463.083,86.711,463.083,91.186z"/>
	<path style="fill:#F5F0EB;" d="M463.083,182.559v52.163c0,4.464-3.617,8.081-8.081,8.081h-47.877c-4.464,0-8.091-3.617-8.091-8.081
		v-52.163c0-4.464,3.627-8.081,8.091-8.081h47.877C459.466,174.479,463.083,178.096,463.083,182.559z"/>
	<path style="fill:#F5F0EB;" d="M463.083,273.943v52.163c0,4.464-3.617,8.081-8.081,8.081h-47.877c-4.464,0-8.091-3.617-8.091-8.081
		v-52.163c0-4.464,3.627-8.081,8.091-8.081h47.877C459.466,265.863,463.083,269.48,463.083,273.943z"/>
</g>
<path style="fill:#415A87;" d="M364.82,279.421c0,1.139-0.125,2.279-0.387,3.397c-0.617,2.645-1.944,5.143-4.004,7.202
	c-5.843,5.843-15.335,5.843-21.179,0l-8.948-8.948l-7.955,7.955c-5.342,5.342-14.468,2.906-16.433-4.401l-6.784-25.339
	l-6.795-25.339c-1.955-7.297,4.725-13.976,12.032-12.021l12.042,3.22l13.297,3.565l25.339,6.795
	c7.297,1.955,9.743,11.081,4.401,16.422l-7.955,7.966l8.938,8.938C363.357,271.759,364.82,275.595,364.82,279.421z"/>
<path style="fill:#506EA0;" d="M364.82,279.421c0,1.139-0.125,2.279-0.387,3.397c-26.844-5.812-47.114-29.301-48.023-57.672
	l13.297,3.565l25.339,6.795c7.297,1.955,9.743,11.081,4.401,16.422l-7.955,7.966l8.938,8.938
	C363.357,271.759,364.82,275.595,364.82,279.421z"/>
<g>
</g>
<g>
</g>
<g>
</g>
<g>
</g>
<g>
</g>
<g>
</g>
<g>
</g>
<g>
</g>
<g>
</g>
<g>
</g>
<g>
</g>
<g>
</g>
<g>
</g>
<g>
</g>
<g>
</g>
</svg>
