<svg id="Layer_1" enable-background="new 0 0 512 512" height="512" viewBox="0 0 512 512" width="512" xmlns="http://www.w3.org/2000/svg"><g><path d="m119.169 470.257c22.472 15.158 47.597 26.678 74.528 33.739l165.664-14.822c7.639-3.56 15.065-7.498 22.251-11.798l32.761-23.46c52.988-44.941 86.629-111.995 86.629-186.917 0-135.311-109.691-245.002-245.002-245.002s-245.002 109.691-245.002 245.002c0 67.405 27.226 128.448 71.274 172.745z" fill="#9181f2"/><path d="m346.025 124.072c-.942-9.663-12.06-11.646-12.33-21.402-.004-.154 0-.305.002-.458h-114.475c.002.152.006.304.002.458-.27 9.756-11.388 11.739-12.33 21.402-.566 5.807 2.957 10.511 6.114 14.027s6.665 8.269 6.051 14.065c-.69 6.519-6.065 9.362-8.233 15.118-2.242 5.953-.415 13.829 2.956 18.455 3.371 4.627 7.91 6.773 12.292 8.786h100.77c4.382-2.013 8.921-4.159 12.292-8.786s5.198-12.502 2.956-18.455c-2.168-5.756-7.543-8.599-8.233-15.118-.614-5.796 2.894-10.549 6.051-14.065 3.158-3.516 6.682-8.22 6.115-14.027z" fill="#2a428c"/><path d="m339.136 185.737c3.371-4.627 5.198-12.503 2.956-18.456-2.168-5.756-7.543-8.599-8.233-15.118-.094-.891-.081-1.754.003-2.594-20.416.642-21.799-19.588-21.799-19.588l-26.623-27.769h-66.218c.002.152.006.304.002.458-.271 9.756-11.388 11.739-12.331 21.402-.566 5.807 2.958 10.511 6.115 14.027s6.665 8.269 6.051 14.065c-.69 6.519-6.065 9.362-8.233 15.118-2.242 5.953-.415 13.829 2.956 18.456s7.91 6.772 12.292 8.786h100.769c4.383-2.014 8.922-4.16 12.293-8.787z" fill="#1c2e7a"/><g><path d="m159.507 246.139-21.88 84.922c-.515 1.999-1.466 3.86-2.784 5.449l-16.735 20.171v52.604l48.979-48.477c4.04-3.998 6.993-8.96 8.582-14.417l22.142-76.056z" fill="#fcad6d"/><path d="m181.92 324.915 15.889-54.579-38.302-24.196-14.486 56.223s27.207-9.348 36.899 22.552z" fill="#fd995b"/></g><path d="m410.127 367.517c-.089-1.814-.25-3.625-.481-5.426l-14.882-115.951-38.303 24.196 14.973 97.896c.272 1.782.491 3.571.656 5.366l9.522 103.779c11.575-6.926 22.527-14.781 32.761-23.461z" fill="#fcad6d"/><path d="m401.98 302.363-7.216-56.223-38.303 24.196 8.51 55.641c10.576-37.415 37.009-23.614 37.009-23.614z" fill="#fd995b"/><g><path d="m234.392 188.846c3.119 3.832 6.588 9.058 10.012 14.537 4.55 7.279 11.181 12.789 17.232 16.695 8.934 5.767 20.402 5.767 29.337 0 6.051-3.906 12.682-9.416 17.232-16.695 3.553-5.685 7.153-11.021 10.361-14.888 1.576-1.899 3.834-2.987 6.198-3.14-6.201-2.455-10.587-5.341-12.7-6.572-10.933-7.961-10.632-16.016-10.632-23.822-5.954 5.322-16.095 12.076-24.56 12.487-8.465-.411-18.606-7.165-24.56-12.487 0 7.806.302 15.861-10.632 23.822-2.161 1.259-6.693 4.249-13.117 6.738-.116.045-.234.087-.351.131 2.367.172 4.62 1.277 6.18 3.194z" fill="#fcad6d"/><path d="m252.312 154.962c0 7.806.301 15.861-10.632 23.822-2.161 1.259-6.693 4.249-13.117 6.739-.116.045-.234.087-.351.131 2.367.171 4.62 1.276 6.179 3.192 3.119 3.832 6.587 9.058 10.012 14.537 4.55 7.28 11.181 12.789 17.232 16.695 2.273 1.468 4.712 2.557 7.23 3.278.304-.552.6-1.102.875-1.646 9.711-19.194 9.336-42.532 8.319-54.371-.398.045-.797.092-1.189.111-8.463-.412-18.604-7.166-24.558-12.488z" fill="#fd995b"/></g><path d="m390.224 216.878c-9.176-18.353-25.283-23.478-32.621-24.888-6.411-1.079-19.717-4.443-29.324-7.839-3.499-1.237-7.372-.16-9.74 2.698-10.656 12.861-10.785 20.723-27.578 31.558-8.413 5.428-18.633 5.82-27.652 0-16.792-10.835-16.955-18.737-27.578-31.558-2.367-2.857-6.241-3.934-9.74-2.698-9.607 3.395-22.913 6.759-29.324 7.839-7.338 1.409-23.445 6.534-32.621 24.888-2.251 4.501-3.606 15.627-4.54 29.261 5.551 8.056 17.669 21.404 38.303 24.197.082-.565.165-1.107.249-1.624.399-2.458 3.987-2.351 4.231.128.343 3.494.722 5.9 1.113 8.552v-.001c1.122 7.271 2.57 14.428 4.373 21.658.664-.719 1.381-1.393 2.182-1.981 12.451-9.147 17.785-25.972 19.857-35.188.581-2.582 2.85-4.385 5.519-4.385h83.605c2.669 0 4.939 1.803 5.518 4.385 2.074 9.216 7.409 26.042 19.857 35.188.801.588 1.518 1.262 2.182 1.982 1.804-7.23 3.252-14.387 4.373-21.658v.001c.39-2.653.77-5.058 1.113-8.552.243-2.479 3.832-2.586 4.231-.128.084.517.167 1.059.249 1.624 20.633-2.792 32.752-16.14 38.303-24.197-.934-13.635-2.29-24.761-4.54-29.262z" fill="#ffdd40"/><path d="m270.411 251.628c-10.414-14.446-1.885-28.118-.67-29.919.046-.069.089-.14.135-.209-2.229-.697-4.432-1.715-6.567-3.092-16.792-10.835-16.955-18.737-27.578-31.558-2.367-2.857-6.241-3.935-9.74-2.698-9.607 3.395-22.913 6.759-29.324 7.839-7.338 1.409-23.445 6.534-32.621 24.888-2.251 4.501-3.606 15.627-4.54 29.261 5.551 8.056 17.669 21.404 38.302 24.196.082-.565.166-1.107.25-1.624.399-2.458 3.987-2.351 4.23.128.343 3.495.723 5.9 1.113 8.552 1.122 7.271 2.57 14.428 4.373 21.658.664-.72 1.381-1.393 2.181-1.981 12.45-9.147 17.785-25.972 19.857-35.188.581-2.582 2.851-4.385 5.52-4.385h36.58c.239-2.042-.257-4.143-1.501-5.868z" fill="#ffb332"/><path d="m193.696 503.996c19.895 5.216 40.773 8.004 62.304 8.004 36.935 0 71.953-8.189 103.361-22.826-1.217-12.102-2.721-23.479-4.348-33.879.008.91.015 1.816.021 2.716.035 4.866-3.903 8.8-8.751 8.8h-138.295c-4.876 0-8.786-3.963-8.752-8.8.003-.485.007-.975.011-1.464-2.218 14.407-4.215 30.478-5.551 47.449z" fill="#ff7186"/><path d="m277.135 511.092v-21.778c0-5.793 2.865-10.784 5.885-14.435 1.91-2.309 2.474-5.367 1.641-8.068h-76.674c-4.876 0-8.786-3.963-8.752-8.8.003-.485.007-.975.011-1.464-2.218 14.406-4.215 30.477-5.551 47.448 19.896 5.217 40.774 8.005 62.305 8.005 7.121 0 14.169-.311 21.135-.908z" fill="#ff4155"/><path d="m352.303 309.268c-.228-5.32-2.756-10.33-7.047-13.483-12.114-8.901-17.288-25.55-19.245-34.254-.742-3.299-3.691-5.628-7.072-5.628-9.425 0-74.18 0-83.605 0-3.382 0-6.331 2.328-7.073 5.628-1.957 8.704-7.131 25.354-19.245 34.254-4.291 3.153-6.819 8.163-7.048 13.483-1.101 25.655-3.962 96.575-4.323 148.733-.04 5.737 4.607 10.404 10.344 10.404h138.295c5.737 0 10.384-4.666 10.344-10.404-.363-52.158-3.224-123.078-4.325-148.733z" fill="#70f2a4"/><path d="m282.818 463.623c-4.142-4.43-5.299-9.871-5.592-11.82-.063-.417-.091-.831-.091-1.252v-37.486c0-8.806 3.021-15.947 5.63-20.472 1.754-3.042 1.373-6.827-.796-9.588-7.652-9.739-7.813-26.306-7.813-26.306v-27.45c0-1.977-.702-3.885-1.941-5.426-5.776-7.189-3.924-13.475-1.517-17.355 1.722-2.776 1.559-6.289-.176-9.058-9.538-15.227-3.935-29.436.28-36.585.892-1.513 1.261-3.235 1.139-4.923-16.7 0-32.338 0-36.609 0-3.382 0-6.331 2.328-7.073 5.628-1.957 8.704-7.131 25.353-19.245 34.254-4.291 3.153-6.819 8.163-7.048 13.483-1.101 25.655-3.962 96.575-4.323 148.733-.04 5.737 4.607 10.403 10.344 10.403h77.004c-.182-1.737-.901-3.42-2.173-4.78z" fill="#50dd89"/><g><path d="m241.68 267.916c-4.398 0-7.963-3.565-7.963-7.963v-84.517c0-4.398 3.565-7.963 7.963-7.963s7.963 3.565 7.963 7.963v84.517c0 4.398-3.565 7.963-7.963 7.963z" fill="#70f2a4"/></g><g><path d="m312.063 267.916c-4.398 0-7.963-3.565-7.963-7.963v-84.517c0-4.398 3.565-7.963 7.963-7.963s7.963 3.565 7.963 7.963v84.517c0 4.398-3.565 7.963-7.963 7.963z" fill="#70f2a4"/></g><path d="m241.68 227.984c-4.398 0-7.963-3.565-7.963-7.963v39.932c0 4.398 3.565 7.963 7.963 7.963s7.963-3.565 7.963-7.963v-39.932c0 4.398-3.565 7.963-7.963 7.963z" fill="#50dd89"/><path d="m312.063 227.984c-4.398 0-7.963-3.565-7.963-7.963v39.932c0 4.398 3.565 7.963 7.963 7.963s7.963-3.565 7.963-7.963v-39.932c0 4.398-3.565 7.963-7.963 7.963z" fill="#50dd89"/><path d="m176.584 36.642h-142.925c-9.51 0-16.182 9.378-13.064 18.363l20.044 57.746c.874-.36 1.83-.57 2.845-.57h123.275c1.015 0 1.97.21 2.845.57l20.044-57.746c3.118-8.985-3.553-18.363-13.064-18.363z" fill="#ffdd40"/><path d="m105.121 36.642h-71.463c-9.51 0-16.182 9.378-13.063 18.363l20.044 57.746c.874-.36 1.83-.57 2.845-.57h59.845c.028-1.086-.404-2.172-1.253-2.935-3.082-2.766-4.095-7.034-4.095-7.034s-4.535-30.564-6.907-46.231 14.047-19.339 14.047-19.339z" fill="#ffb332"/><path d="m91.074 395.863c6.239.323 11.246 5.51 11.246 11.825v32.629c0 5.039-3.192 9.352-7.65 11.056 7.752 6.789 15.929 13.104 24.499 18.884v-247.977h-28.095z" fill="#e9efff"/><path d="m105.121 286.152c6.188 0 11.519 3.608 14.047 8.826v-72.698h-28.094v72.698c2.528-5.218 7.86-8.826 14.047-8.826z" fill="#bec8f7"/><path d="m105.121 191.097h-4.386c-3.642 0-7.107-1.391-9.662-3.785v37.091h28.095v-37.091c-2.555 2.394-6.02 3.785-9.662 3.785z" fill="#ff7186"/><path d="m314.146 324.915h-74.548v26.294c0 20.586 16.688 37.274 37.274 37.274 20.586 0 37.274-16.688 37.274-37.274z" fill="#38c674"/><path d="m239.598 351.208c0 20.586 16.688 37.275 37.274 37.275 2.383 0 4.71-.233 6.968-.66-.125-1.716-.759-3.402-1.871-4.818-7.652-9.739-7.813-26.306-7.813-26.306v-27.45c0-1.534-.427-3.023-1.194-4.334h-33.364z" fill="#1ba552"/><path d="m314.146 325.977h-74.548v-15.857c0-4.284 3.473-7.757 7.757-7.757h59.034c4.284 0 7.757 3.473 7.757 7.757z" fill="#50dd89"/><path d="m272.215 323.823c-5.776-7.189-3.924-13.475-1.517-17.355.783-1.262 1.157-2.678 1.19-4.105h-24.533c-4.284 0-7.757 3.473-7.757 7.757v15.857h33.89c-.32-.769-.744-1.496-1.273-2.154z" fill="#38c674"/><path d="m166.759 111.071h-123.275c-4.743 0-8.315 4.37-7.314 9.006 5.685 26.332 34.389 48.725 45.304 56.418 2.864 2.018 5.059 4.838 6.323 8.109 2.038 5.276 7.283 8.617 12.939 8.617h4.386 4.386c5.656 0 10.901-3.341 12.939-8.617 1.264-3.271 3.459-6.091 6.323-8.109 10.915-7.692 39.619-30.086 45.304-56.418 1-4.636-2.573-9.006-7.315-9.006z" fill="#ff4155"/><path d="m36.169 120.077c5.685 26.332 34.389 48.725 45.304 56.418 2.864 2.018 5.059 4.838 6.323 8.109 2.038 5.276 7.283 8.617 12.939 8.617h4.386 4.386c5.657 0 10.901-3.341 12.939-8.617.731-1.892 1.782-3.625 3.085-5.148-24.831-6.358-20.41-30.279-20.41-30.279v-15.926c-7.652-7.652-4.919-15.133-2.372-19.151.586-.923.711-2.027.437-3.03h-59.702c-4.743.001-8.315 4.371-7.315 9.007z" fill="#e80054"/><g><path d="m119.169 149.177h-28.095c-4.398 0-7.963-3.565-7.963-7.963s3.565-7.963 7.963-7.963h28.095c4.398 0 7.963 3.565 7.963 7.963 0 4.399-3.566 7.963-7.963 7.963z" fill="#ff7186"/></g><path d="m92.38 454.275h-14.864c-7.007 0-12.741-5.733-12.741-12.741v-35.064c0-7.008 5.733-12.741 12.741-12.741h14.864c7.007 0 12.741 5.733 12.741 12.741v35.064c0 7.008-5.733 12.741-12.741 12.741z" fill="#f9ba8f"/><path d="m92.38 424.003h-14.864c-7.008 0-12.741-5.733-12.741-12.741v30.273c0 7.007 5.733 12.741 12.741 12.741h14.864c7.007 0 12.741-5.733 12.741-12.741v-30.273c0 7.007-5.733 12.741-12.741 12.741z" fill="#fcad6d"/><path d="m228.545 78.151c.705-2.306 1.653-4.28 2.914-5.7 1.141-1.285 1.768-2.786 1.814-4.342 0 0 5.012-22.836 24.013-24.02 0 0 12.888-2.458 24.261 16.215 9.435 15.489 31.755 20.739 43.47 17.935 2.562-1.628 6.887-2.558 9.876-1.487 0-13.607 0-19.151 0-21.182 0-.738 0-1.014 0-1.044.002-29.478-23.61-54.526-58.039-54.526-34.225 0-58.041 24.966-58.041 54.527v22.226c2.935-1.052 7.154-.175 9.732 1.398z" fill="#2a428c"/><path d="m274.995 51.787c.058-.949.089-1.491.089-1.491s19.026-13.765 6.431-26.361c-12.593-12.593 18.934-19.554 18.943-19.556-7.058-2.812-14.993-4.379-23.604-4.379-34.225 0-58.041 24.966-58.041 54.527v22.226c2.935-1.051 7.154-.174 9.732 1.399.705-2.307 1.653-4.28 2.913-5.7 1.141-1.285 1.768-2.786 1.815-4.342 0 0 5.012-22.836 24.014-24.02 0 0 8.453-1.608 17.708 7.697z" fill="#1c2e7a"/><path d="m333.599 75.345c-2.705-1.883-7.351-.12-9.244 1.51-.108.108-.206.213-.31.32 2.968 10.872 1.078 27.782.761 29.807-.016.069-.033.137-.048.206 5.588.382 9.685-2.951 9.685-7.86 0-1.612.144-3.219.427-4.807.922-5.172 5.505-14.457-1.271-19.176z" fill="#fcad6d"/><path d="m228.91 107.025c-1.155-6.71-2.12-20.189.19-29.087-.317-.353-.653-.712-1.025-1.084-1.892-1.63-6.539-3.393-9.243-1.51-6.776 4.719-2.193 14.004-1.271 19.176.283 1.588.427 3.195.427 4.807 0 5.264 4.709 8.72 10.919 7.722l.005-.02z" fill="#fd995b"/><path d="m281.548 58.727c-11.374-18.672-24.261-16.215-24.261-16.215-19.001 1.183-24.013 24.02-24.013 24.02-.046 1.556-.674 3.057-1.814 4.342-6.287 7.085-4.91 27.783-3.443 36.305 3.248 14.338 7.954 26.84 13.984 37.16 6.122 10.477 15.392 18.624 26.809 23.564 5.114 2.211 10.977 2.212 16.09 0 11.417-4.94 20.688-13.088 26.809-23.564 6.029-10.317 10.735-22.82 13.99-37.186 1.124-7.146 1.819-21.471-.977-30.589-11.666 2.902-33.69-2.269-43.174-17.837z" fill="#f9ba8f"/><path d="m275.435 144.339c-6.03-10.32-10.735-22.822-13.983-37.16-1.467-8.522-2.844-29.22 3.443-36.305 1.141-1.285 1.768-2.786 1.814-4.342 0 0 2.029-9.211 8.375-16.236-9.29-9.406-17.797-7.783-17.797-7.783-19.002 1.183-24.014 24.02-24.014 24.02-.046 1.556-.674 3.057-1.815 4.342-6.287 7.085-4.91 27.783-3.443 36.305 3.248 14.338 7.954 26.84 13.984 37.16 6.122 10.476 15.392 18.624 26.81 23.564 5.114 2.211 10.977 2.212 16.09 0 3.053-1.321 5.946-2.878 8.673-4.641-7.471-4.831-13.652-11.249-18.137-18.924z" fill="#fcad6d"/><path d="m356.212 268.712c.084.517.167 1.059.249 1.624 8.608-1.165 15.73-4.17 21.515-7.859-2.515-13.254-8.033-22.295-13.343-28.225-4.432-4.949-12.652-1.725-12.652 4.919v29.669c.244-2.479 3.832-2.586 4.231-.128z" fill="#ffb332"/></g></svg>