<svg width="1374" height="124" viewBox="0 0 1174 124" fill="none" xmlns="http://www.w3.org/2000/svg">
<path fill-rule="evenodd" clip-rule="evenodd" d="M0 89.2886C0 81.7318 7.73733 76.645 14.675 79.6409V79.6409C30.3283 85.9779 60.6567 98.6519 90.0067 90.2026C120.335 81.7532 150.663 52.1805 180.992 35.2817C210.342 18.383 240.67 14.1583 270.998 20.4954C301.327 26.8324 330.677 43.7311 361.005 43.7311C391.333 43.7311 421.662 26.8324 451.99 22.6077C481.34 18.383 511.668 26.8324 541.997 39.5064C572.325 52.1805 601.675 69.0792 632.003 62.7422C662.332 56.4051 692.66 26.8324 722.01 12.046C752.338 -2.74037 782.667 -2.74037 812.995 5.70898C843.323 14.1583 872.673 31.0571 903.002 37.3941C933.33 43.7311 963.658 39.5064 993.008 39.5064C1023.34 39.5064 1053.66 43.7311 1083.99 50.0681C1113.34 56.4051 1143.67 64.8545 1159.32 69.0792V69.0792C1168.01 71.5809 1174 79.532 1174 88.5749V109.325C1174 117.43 1167.43 124 1159.32 124V124C1143.67 124 1113.34 124 1083.99 124C1053.66 124 1023.34 124 993.008 124C963.658 124 933.33 124 903.002 124C872.673 124 843.323 124 812.995 124C782.667 124 752.338 124 722.01 124C692.66 124 662.332 124 632.003 124C601.675 124 572.325 124 541.997 124C511.668 124 481.34 124 451.99 124C421.662 124 391.333 124 361.005 124C330.677 124 301.327 124 270.998 124C240.67 124 210.342 124 180.992 124C150.663 124 120.335 124 90.0067 124C60.6567 124 30.3283 124 14.675 124V124C6.57022 124 0 117.43 0 109.325V89.2886Z" fill="#062041" fill-opacity="0.1"/>
</svg>
