<?xml version="1.0" encoding="iso-8859-1"?>
<!-- Generator: Adobe Illustrator 19.0.0, SVG Export Plug-In . SVG Version: 6.00 Build 0)  -->
<svg version="1.1" id="Capa_1" xmlns="http://www.w3.org/2000/svg" xmlns:xlink="http://www.w3.org/1999/xlink" x="0px" y="0px"
	 viewBox="0 0 512 512" style="enable-background:new 0 0 512 512;" xml:space="preserve">
<path style="fill:#FAB9AF;" d="M500.711,260.437c0,134.294-108.664,244.711-244.711,244.711
	c-135.694,0-244.711-110.084-244.711-244.711c0-1.158,0.01-2.306,0.03-3.454C13.163,123.424,122.008,15.727,256,15.727
	c134.244,0,242.837,107.929,244.68,241.256C500.701,258.131,500.711,259.289,500.711,260.437z"/>
<path style="fill:#AA6432;" d="M500.711,260.437c0,134.294-108.664,244.711-244.711,244.711
	c-135.694,0-244.711-110.084-244.711-244.711c0-1.158,0.01-2.306,0.03-3.454H500.68
	C500.701,258.131,500.711,259.289,500.711,260.437z"/>
<g>
	<circle style="fill:#965028;" cx="218.537" cy="105.069" r="42.72"/>
	<circle style="fill:#965028;" cx="293.463" cy="105.069" r="42.72"/>
</g>
<g>
	<path style="fill:#FFC477;" d="M207.036,123.398c-8.819,0-15.968-7.149-15.968-15.968s7.149-15.968,15.968-15.968"/>
	<path style="fill:#FFC477;" d="M303.147,123.398c8.819,0,15.968-7.149,15.968-15.968s-7.149-15.968-15.968-15.968"/>
	<path style="fill:#FFC477;" d="M341.601,230.174v37.357c0,0.534-0.427,0.961-0.961,0.961H171.36c-0.534,0-0.962-0.427-0.962-0.961
		v-37.357c0-23.612,18.08-43.016,41.148-45.099c1.367-0.128,2.744-0.192,4.133-0.192h14.172c0.406,0,0.791-0.042,1.174-0.118
		c2.841-0.534,4.987-3.032,4.987-6.044V159.85c-18.251-7.241-31.238-25.096-31.238-45.846V39.643h100.633v74.361
		c0,20.056-12.142,37.399-29.433,45.078v19.639c0,3.407,2.765,6.162,6.172,6.162h14.161c1.463,0,2.894,0.075,4.304,0.214
		C323.616,187.254,341.601,206.616,341.601,230.174z"/>
</g>
<path style="fill:#AA6432;" d="M293.662,39.035v2.52c0,17.701-5.66,27.537-32.183,32.183l-46.925,7.512l-14.636,2.344
	c-4.971,0-8.996-4.031-8.996-9.002V39.614c0-18.02,14.742-32.761,32.761-32.761h37.796C279.18,6.852,293.662,21.334,293.662,39.035z
	"/>
<path style="fill:#FFDAAA;" d="M300.616,185.093c-1.416-0.138-2.849-0.206-4.302-0.206h-14.169c-3.404,0-6.164-2.759-6.164-6.164
	V159.08c17.288-7.675,29.425-25.025,29.425-45.079v-74.36h-79.94v74.361c0,19.57,11.558,36.563,28.181,44.504
	c1.861,0.889,3.057,2.752,3.057,4.814v15.403c0,3.404-2.759,6.164-6.164,6.164h-14.169c-1.395,0-2.775,0.063-4.132,0.191
	c-23.075,2.085-41.153,21.484-41.153,45.1v37.356c0,0.531,0.43,0.96,0.96,0.96h148.594c0.531,0,0.96-0.43,0.96-0.96v-37.356
	C341.6,206.62,323.611,187.258,300.616,185.093z"/>
<g>
	<circle style="fill:#965028;" cx="237.802" cy="99.208" r="5.625"/>
	<circle style="fill:#965028;" cx="274.198" cy="99.208" r="5.625"/>
</g>
<path style="fill:#DCA041;" d="M271.548,117.484c-2.197,0-3.979,1.781-3.979,3.979c0,6.016-4.894,10.91-10.91,10.91
	c-6.015,0-10.91-4.893-10.91-10.91c0-2.197-1.782-3.979-3.979-3.979s-3.979,1.781-3.979,3.979c0,10.403,8.464,18.867,18.867,18.867
	c10.403,0,18.867-8.464,18.867-18.867C275.526,119.265,273.746,117.484,271.548,117.484z"/>
<path style="fill:#B9783D;" d="M305.434,12.958h-0.65c-6.975,0-12.921,4.627-14.923,10.962
	c-5.435-10.134-16.137-17.068-28.383-17.068h-17.107c-18.019,0-32.761,14.743-32.761,32.761v34.979c0,2.637,1.135,5.013,2.944,6.658
	l46.925-7.512c12.488-2.187,20.351-5.526,25.176-10.293c0.924-0.913,2.486-0.265,2.486,1.034v5.667
	c0,8.603,7.039,15.644,15.644,15.644h0.65c8.603,0,15.644-7.039,15.644-15.644V28.601C321.078,19.998,314.038,12.958,305.434,12.958
	z"/>
<path style="fill:#2D2D2D;" d="M341.601,230.174v37.357c0,0.534-0.427,0.961-0.961,0.961H171.36c-0.534,0-0.962-0.427-0.962-0.961
	v-37.357c0-23.612,18.08-43.016,41.148-45.099c1.367-0.128,2.744-0.192,4.133-0.192h14.172c0.406,0,0.791-0.042,1.174-0.118
	l0.545,0.812l17.301,26.058c3.813,5.745,12.142,6.023,16.329,0.545l20.868-27.296h10.242c1.463,0,2.894,0.075,4.304,0.214
	C323.616,187.254,341.601,206.616,341.601,230.174z"/>
<path style="fill:#464646;" d="M341.601,230.174v37.357c0,0.534-0.427,0.961-0.961,0.961H195.175c-0.524,0-0.961-0.427-0.961-0.961
	v-37.357c0-22.299,16.126-40.849,37.357-44.598l17.301,26.058c3.813,5.745,12.142,6.023,16.329,0.545l20.868-27.296h10.242
	c1.463,0,2.894,0.075,4.304,0.214C323.616,187.254,341.601,206.616,341.601,230.174z"/>
<path style="fill:#F2C230;" d="M325.613,240.449c0,3.15-2.552,5.703-5.703,5.703h-33.533c-3.14,0-5.692-2.552-5.692-5.703
	c0-3.14,2.553-5.692,5.692-5.692h33.533C323.062,234.756,325.613,237.309,325.613,240.449z"/>
<path style="fill:#FFE13C;" d="M325.613,240.449c0,3.15-2.552,5.703-5.703,5.703h-20.536c-3.14,0-5.692-2.552-5.692-5.703
	c0-3.14,2.553-5.692,5.692-5.692h20.536C323.062,234.756,325.613,237.309,325.613,240.449z"/>
<path style="fill:#F5C850;" d="M405.387,223.602V209.99c0-1.259,1.03-2.289,2.289-2.289l0,0c1.259,0,2.289,1.03,2.289,2.289v13.612
	c0,1.259-1.03,2.289-2.289,2.289l0,0C406.418,225.891,405.387,224.861,405.387,223.602z"/>
<path style="fill:#F7D139;" d="M417.196,215.234c0,0.674-0.273,1.283-0.715,1.722c-0.44,0.442-1.05,0.715-1.722,0.715h-14.166
	c-1.345,0-2.437-1.092-2.437-2.437c0-2.63,1.066-5.009,2.788-6.732c1.722-1.722,4.104-2.788,6.732-2.788
	c1.231,0,2.407,0.234,3.488,0.659c1.227,0.482,2.329,1.214,3.245,2.129C416.131,210.225,417.196,212.605,417.196,215.234z"/>
<path style="fill:#FFEB50;" d="M417.196,215.234c0,0.674-0.273,1.283-0.715,1.722c-0.44,0.442-1.05,0.715-1.722,0.715h-7.193
	c-1.345,0-2.437-1.092-2.437-2.437c0-2.63,1.065-5.009,2.788-6.732c0.916-0.915,2.019-1.647,3.247-2.129
	c1.227,0.482,2.329,1.214,3.245,2.129C416.131,210.225,417.196,212.605,417.196,215.234z"/>
<path style="fill:#F7D139;" d="M434.238,248.901v4.864h-53.125v-4.864c0-14.67,11.893-26.562,26.562-26.562
	c0.857,0,1.706,0.04,2.543,0.121c6.319,0.6,11.994,3.414,16.239,7.659C431.266,234.926,434.238,241.566,434.238,248.901z"/>
<path style="fill:#FFEB50;" d="M434.238,248.901v4.864h-48.037v-4.864c0-13.811,10.542-25.162,24.018-26.442
	c6.319,0.6,11.994,3.414,16.239,7.659C431.266,234.926,434.238,241.566,434.238,248.901z"/>
<path style="fill:#B9783D;" d="M437.165,253.784c0,0.295-0.039,0.581-0.115,0.852c-0.149,0.541-0.436,1.025-0.822,1.41
	c-0.58,0.58-1.379,0.937-2.262,0.937h-52.58c-1.765,0-3.198-1.431-3.198-3.198c0-0.883,0.358-1.683,0.937-2.262
	c0.58-0.58,1.379-0.937,2.262-0.937h52.58c1.417,0,2.619,0.922,3.038,2.199C437.109,253.099,437.165,253.435,437.165,253.784z"/>
<path style="fill:#D29650;" d="M437.165,253.784c0,0.295-0.039,0.581-0.115,0.852h-52.194c-1.765,0-3.198-1.431-3.198-3.198
	c0-0.295,0.039-0.581,0.115-0.852h52.194c1.417,0,2.619,0.922,3.038,2.199C437.109,253.099,437.165,253.435,437.165,253.784z"/>
<path style="fill:#828282;" d="M161.083,124.35v88.203c0,6.37-5.162,11.542-11.532,11.542H15.51c-6.37,0-11.532-5.172-11.532-11.542
	V124.35c0-6.37,5.162-11.532,11.532-11.532h134.041C155.92,112.819,161.083,117.982,161.083,124.35z"/>
<path style="fill:#9B9B9B;" d="M161.083,124.35v81.224H30.472c-6.37,0-11.532-5.172-11.532-11.542v-81.213h130.61
	C155.92,112.819,161.083,117.982,161.083,124.35z"/>
<path style="fill:#AAAAAA;" d="M119.661,267.225H45.399l14.391-63.094c2.407-10.524,11.753-17.976,22.538-17.976
	c3.293,0,6.455,0.695,9.326,1.964c1.803,0.796,3.495,1.813,5.035,3.031c3.978,3.152,6.919,7.614,8.147,12.84L119.661,267.225z"/>
<path style="fill:#BEBEBE;" d="M119.661,267.225H64.03l14.391-63.094c1.672-7.311,6.697-13.142,13.233-16.013
	c1.803,0.796,3.495,1.813,5.035,3.031c3.978,3.152,6.919,7.614,8.147,12.84L119.661,267.225z"/>
<path style="fill:#80391B;" d="M512,267.406v15.267c0,5.73-4.693,10.423-10.423,10.423H10.423C4.693,293.097,0,288.404,0,282.674
	v-15.267c0-5.73,4.693-10.423,10.423-10.423h491.153C507.307,256.983,512,261.676,512,267.406z"/>
<path style="fill:#965028;" d="M512,267.406v11.088H22.992c-5.73,0-10.423-4.693-10.423-10.423v-11.088h489.008
	C507.307,256.983,512,261.676,512,267.406z"/>
<g>
	<path style="fill:#80391B;" d="M214.961,348.517v153.217c-39.77-6.707-76.216-22.992-106.932-46.366
		c-13.354-10.151-25.63-21.642-36.617-34.281v-72.57c0-10.826,8.782-19.598,19.608-19.598h104.344
		C206.19,328.919,214.961,337.69,214.961,348.517z"/>
	<path style="fill:#80391B;" d="M440.588,348.517v72.57c-28.269,32.509-65.027,57.524-106.942,71.513
		c-11.813,3.948-24.039,7.019-36.607,9.134V348.517c0-10.826,8.772-19.598,19.598-19.598H420.98
		C431.806,328.919,440.588,337.69,440.588,348.517z"/>
</g>
<g>
	<path style="fill:#965028;" d="M214.961,348.517v153.217c-39.77-6.707-76.216-22.992-106.932-46.366V348.516
		c0-10.826,8.772-19.598,19.598-19.598h67.736C206.19,328.919,214.961,337.69,214.961,348.517z"/>
	<path style="fill:#965028;" d="M440.588,348.517v72.57c-28.269,32.509-65.027,57.524-106.942,71.513V348.517
		c0-10.826,8.782-19.598,19.598-19.598h67.736C431.806,328.919,440.588,337.69,440.588,348.517z"/>
</g>
<g>
</g>
<g>
</g>
<g>
</g>
<g>
</g>
<g>
</g>
<g>
</g>
<g>
</g>
<g>
</g>
<g>
</g>
<g>
</g>
<g>
</g>
<g>
</g>
<g>
</g>
<g>
</g>
<g>
</g>
</svg>
