<svg width="105" height="55" viewBox="0 0 105 55" fill="none" xmlns="http://www.w3.org/2000/svg">
<path d="M63.6074 17.5254V13.1836H74.8223V23.4492C73.7324 24.5039 72.1504 25.4355 70.0762 26.2441C68.0137 27.041 65.9219 27.4395 63.8008 27.4395C61.1055 27.4395 58.7559 26.877 56.752 25.752C54.748 24.6152 53.2422 22.998 52.2344 20.9004C51.2266 18.791 50.7227 16.5 50.7227 14.0273C50.7227 11.3438 51.2852 8.959 52.4102 6.873C53.5352 4.7871 55.1816 3.1875 57.3496 2.07422C59.002 1.21875 61.0586 0.791016 63.5195 0.791016C66.7188 0.791016 69.2148 1.46484 71.0078 2.8125C72.8125 4.1484 73.9727 6 74.4883 8.3672L69.3203 9.334C68.957 8.0684 68.2715 7.0723 67.2637 6.3457C66.2676 5.6074 65.0195 5.2383 63.5195 5.2383C61.2461 5.2383 59.4355 5.959 58.0879 7.4004C56.752 8.8418 56.084 10.9805 56.084 13.8164C56.084 16.875 56.7637 19.1719 58.123 20.707C59.4824 22.2305 61.2637 22.9922 63.4668 22.9922C64.5566 22.9922 65.6465 22.7812 66.7363 22.3594C67.8379 21.9258 68.7812 21.4043 69.5664 20.7949V17.5254H63.6074Z" fill="#062041"/>
<path d="M42.3926 10.4746V14.8164H31.1777V4.5508C32.2676 3.4961 33.8496 2.56445 35.9238 1.75586C37.9863 0.958977 40.0781 0.560547 42.1992 0.560547C44.8945 0.560547 47.2441 1.12305 49.248 2.24805C51.252 3.3848 52.7578 5.002 53.7656 7.0996C54.7734 9.209 55.2773 11.5 55.2773 13.9727C55.2773 16.6562 54.7148 19.041 53.5898 21.127C52.4648 23.2129 50.8184 24.8125 48.6504 25.9258C46.998 26.7812 44.9414 27.209 42.4805 27.209C39.2812 27.209 36.7852 26.5352 34.9922 25.1875C33.1875 23.8516 32.0273 22 31.5117 19.6328L36.6797 18.666C37.043 19.9316 37.7285 20.9277 38.7363 21.6543C39.7324 22.3926 40.9805 22.7617 42.4805 22.7617C44.7539 22.7617 46.5645 22.041 47.9121 20.5996C49.248 19.1582 49.916 17.0195 49.916 14.1836C49.916 11.125 49.2363 8.8281 47.877 7.293C46.5176 5.7695 44.7363 5.0078 42.5332 5.0078C41.4434 5.0078 40.3535 5.2187 39.2637 5.6406C38.1621 6.0742 37.2188 6.5957 36.4336 7.2051V10.4746H42.3926Z" fill="#062041"/>
<path d="M72 30H33V34H72V30Z" fill="#062041"/>
<path d="M7.30371 46.2627V44.0918H12.9111V49.2246C12.3662 49.752 11.5752 50.2178 10.5381 50.6221C9.50684 51.0205 8.46094 51.2197 7.40039 51.2197C6.05273 51.2197 4.87793 50.9385 3.87598 50.376C2.87402 49.8076 2.12109 48.999 1.61719 47.9502C1.11328 46.8955 0.861328 45.75 0.861328 44.5137C0.861328 43.1719 1.14258 41.9795 1.70508 40.9365C2.26758 39.8936 3.09082 39.0938 4.1748 38.5371C5.00098 38.1094 6.0293 37.8955 7.25977 37.8955C8.85938 37.8955 10.1074 38.2324 11.0039 38.9062C11.9062 39.5742 12.4863 40.5 12.7441 41.6836L10.1602 42.167C9.97852 41.5342 9.63574 41.0361 9.13184 40.6729C8.63379 40.3037 8.00977 40.1191 7.25977 40.1191C6.12305 40.1191 5.21777 40.4795 4.54395 41.2002C3.87598 41.9209 3.54199 42.9902 3.54199 44.4082C3.54199 45.9375 3.88184 47.0859 4.56152 47.8535C5.24121 48.6152 6.13184 48.9961 7.2334 48.9961C7.77832 48.9961 8.32324 48.8906 8.86816 48.6797C9.41895 48.4629 9.89062 48.2021 10.2832 47.8975V46.2627H7.30371ZM15.3193 51V38.1152H24.873V40.2949H17.9209V43.1514H24.3896V45.3223H17.9209V48.8291H25.1191V51H15.3193ZM30.2256 51V40.2949H26.4023V38.1152H36.6416V40.2949H32.8271V51H30.2256ZM48.6123 51H45.7822L44.6572 48.0732H39.5068L38.4434 51H35.6836L40.7021 38.1152H43.4531L48.6123 51ZM43.8223 45.9023L42.0469 41.1211L40.3066 45.9023H43.8223ZM50.0098 51V38.1152H55.4854C56.8623 38.1152 57.8613 38.2324 58.4824 38.4668C59.1094 38.6953 59.6104 39.1055 59.9854 39.6973C60.3604 40.2891 60.5479 40.9658 60.5479 41.7275C60.5479 42.6943 60.2637 43.4941 59.6953 44.127C59.127 44.7539 58.2773 45.1494 57.1465 45.3135C57.709 45.6416 58.1719 46.002 58.5352 46.3945C58.9043 46.7871 59.3994 47.4844 60.0205 48.4863L61.5938 51H58.4824L56.6016 48.1963C55.9336 47.1943 55.4766 46.5645 55.2305 46.3066C54.9844 46.043 54.7236 45.8643 54.4482 45.7705C54.1729 45.6709 53.7363 45.6211 53.1387 45.6211H52.6113V51H50.0098ZM52.6113 43.5645H54.5361C55.7842 43.5645 56.5635 43.5117 56.874 43.4062C57.1846 43.3008 57.4277 43.1191 57.6035 42.8613C57.7793 42.6035 57.8672 42.2812 57.8672 41.8945C57.8672 41.4609 57.75 41.1123 57.5156 40.8486C57.2871 40.5791 56.9619 40.4092 56.54 40.3389C56.3291 40.3096 55.6963 40.2949 54.6416 40.2949H52.6113V43.5645ZM62.4814 44.6367C62.4814 43.3242 62.6777 42.2227 63.0703 41.332C63.3633 40.6758 63.7617 40.0869 64.2656 39.5654C64.7754 39.0439 65.332 38.6572 65.9355 38.4053C66.7383 38.0654 67.6641 37.8955 68.7129 37.8955C70.6113 37.8955 72.1289 38.4844 73.2656 39.6621C74.4082 40.8398 74.9795 42.4775 74.9795 44.5752C74.9795 46.6553 74.4141 48.2842 73.2832 49.4619C72.1523 50.6338 70.6406 51.2197 68.748 51.2197C66.832 51.2197 65.3086 50.6367 64.1777 49.4707C63.0469 48.2988 62.4814 46.6875 62.4814 44.6367ZM65.1621 44.5488C65.1621 46.0078 65.499 47.1152 66.1729 47.8711C66.8467 48.6211 67.7021 48.9961 68.7393 48.9961C69.7764 48.9961 70.626 48.624 71.2881 47.8799C71.9561 47.1299 72.29 46.0078 72.29 44.5137C72.29 43.0371 71.9648 41.9355 71.3145 41.209C70.6699 40.4824 69.8115 40.1191 68.7393 40.1191C67.667 40.1191 66.8027 40.4883 66.1465 41.2266C65.4902 41.959 65.1621 43.0664 65.1621 44.5488ZM76.4912 44.6367C76.4912 43.3242 76.6875 42.2227 77.0801 41.332C77.373 40.6758 77.7715 40.0869 78.2754 39.5654C78.7852 39.0439 79.3418 38.6572 79.9453 38.4053C80.748 38.0654 81.6738 37.8955 82.7227 37.8955C84.6211 37.8955 86.1387 38.4844 87.2754 39.6621C88.418 40.8398 88.9893 42.4775 88.9893 44.5752C88.9893 46.6553 88.4238 48.2842 87.293 49.4619C86.1621 50.6338 84.6504 51.2197 82.7578 51.2197C80.8418 51.2197 79.3184 50.6367 78.1875 49.4707C77.0566 48.2988 76.4912 46.6875 76.4912 44.6367ZM79.1719 44.5488C79.1719 46.0078 79.5088 47.1152 80.1826 47.8711C80.8564 48.6211 81.7119 48.9961 82.749 48.9961C83.7861 48.9961 84.6357 48.624 85.2979 47.8799C85.9658 47.1299 86.2998 46.0078 86.2998 44.5137C86.2998 43.0371 85.9746 41.9355 85.3242 41.209C84.6797 40.4824 83.8213 40.1191 82.749 40.1191C81.6768 40.1191 80.8125 40.4883 80.1562 41.2266C79.5 41.959 79.1719 43.0664 79.1719 44.5488ZM90.9932 51V38.1152H94.8867L97.2246 46.9043L99.5361 38.1152H103.438V51H101.021V40.8574L98.4639 51H95.959L93.4102 40.8574V51H90.9932Z" fill="#062041"/>
</svg>
