<svg width="50" height="41" viewBox="0 0 50 41" fill="none" xmlns="http://www.w3.org/2000/svg">
<path d="M35.6074 24.5254V20.1836H46.8223V30.4492C45.7324 31.5039 44.1504 32.4355 42.0762 33.2441C40.0137 34.041 37.9219 34.4395 35.8008 34.4395C33.1055 34.4395 30.7559 33.877 28.752 32.752C26.748 31.6152 25.2422 29.998 24.2344 27.9004C23.2266 25.791 22.7227 23.5 22.7227 21.0273C22.7227 18.3438 23.2852 15.959 24.4102 13.873C25.5352 11.7871 27.1816 10.1875 29.3496 9.07422C31.002 8.21875 33.0586 7.79102 35.5195 7.79102C38.7188 7.79102 41.2148 8.46484 43.0078 9.8125C44.8125 11.1484 45.9727 13 46.4883 15.3672L41.3203 16.334C40.957 15.0684 40.2715 14.0723 39.2637 13.3457C38.2676 12.6074 37.0195 12.2383 35.5195 12.2383C33.2461 12.2383 31.4355 12.959 30.0879 14.4004C28.752 15.8418 28.084 17.9805 28.084 20.8164C28.084 23.875 28.7637 26.1719 30.123 27.707C31.4824 29.2305 33.2637 29.9922 35.4668 29.9922C36.5566 29.9922 37.6465 29.7812 38.7363 29.3594C39.8379 28.9258 40.7812 28.4043 41.5664 27.7949V24.5254H35.6074Z" fill="#062041"/>
<path d="M14.3926 17.4746L14.3926 21.8164H3.17773V11.5508C4.26758 10.4961 5.84961 9.56445 7.92383 8.75586C9.98633 7.95898 12.0781 7.56055 14.1992 7.56055C16.8945 7.56055 19.2441 8.12305 21.248 9.24805C23.252 10.3848 24.7578 12.002 25.7656 14.0996C26.7734 16.209 27.2773 18.5 27.2773 20.9727C27.2773 23.6562 26.7148 26.041 25.5898 28.127C24.4648 30.2129 22.8184 31.8125 20.6504 32.9258C18.998 33.7812 16.9414 34.209 14.4805 34.209C11.2812 34.209 8.78516 33.5352 6.99219 32.1875C5.1875 30.8516 4.02734 29 3.51172 26.6328L8.67969 25.666C9.04297 26.9316 9.72852 27.9277 10.7363 28.6543C11.7324 29.3926 12.9805 29.7617 14.4805 29.7617C16.7539 29.7617 18.5645 29.041 19.9121 27.5996C21.248 26.1582 21.916 24.0195 21.916 21.1836C21.916 18.125 21.2363 15.8281 19.877 14.293C18.5176 12.7695 16.7363 12.0078 14.5332 12.0078C13.4434 12.0078 12.3535 12.2187 11.2637 12.6406C10.1621 13.0742 9.21875 13.5957 8.43359 14.2051V17.4746H14.3926Z" fill="#062041"/>
<rect x="5" y="37" width="39" height="4" fill="#062041"/>
</svg>
