<svg width="90" height="50" viewBox="0 0 150 74" fill="none" xmlns="http://www.w3.org/2000/svg">
<path d="M91.7125 24.4907V18.1365H108V33.1602C106.417 34.7038 104.12 36.0672 101.107 37.2505C98.1118 38.4168 95.0739 39 91.9934 39C88.079 39 84.6667 38.1768 81.7564 36.5303C78.846 34.8666 76.6591 32.4999 75.1955 29.43C73.7318 26.3429 73 22.9901 73 19.3713C73 15.444 73.8169 11.9538 75.4508 8.90097C77.0846 5.84826 79.4757 3.50725 82.6243 1.87797C85.0241 0.625988 88.0109 0 91.5849 0C96.2312 0 99.8562 0.98614 102.46 2.95844C105.081 4.91352 106.766 7.62334 107.515 11.0877L100.009 12.5026C99.4818 10.6504 98.4862 9.19265 97.0226 8.12927C95.576 7.04877 93.7633 6.50859 91.5849 6.50859C88.2832 6.50859 85.6537 7.56333 83.6965 9.67282C81.7564 11.7823 80.7862 14.9123 80.7862 19.0626C80.7862 23.5389 81.7734 26.9004 83.7475 29.147C85.7218 31.3766 88.3088 32.4914 91.5083 32.4914C93.0911 32.4914 94.6739 32.1826 96.2566 31.5653C97.8565 30.9307 99.2265 30.1675 100.367 29.2756V24.4907H91.7125Z" fill="white"/>
<path d="M60.2875 14.5092V20.8634H44V5.83973C45.5829 4.29618 47.8804 2.93271 50.8928 1.74934C53.8882 0.583102 56.9261 0 60.0066 0C63.921 0 67.3333 0.823223 70.2436 2.46966C73.154 4.13329 75.3409 6.50006 76.8045 9.5699C78.2682 12.657 79 16.0099 79 19.6287C79 23.556 78.1831 27.0461 76.5492 30.099C74.9154 33.1517 72.5243 35.4927 69.3757 37.122C66.9759 38.3739 63.9891 39 60.4151 39C55.7688 39 52.1438 38.0139 49.5398 36.0415C46.9188 34.0864 45.2339 31.3766 44.4851 27.9122L51.9906 26.4973C52.5182 28.3495 53.5138 29.8073 54.9774 30.8707C56.424 31.9512 58.2367 32.4914 60.4151 32.4914C63.7168 32.4914 66.3463 31.4366 68.3035 29.3271C70.2436 27.2177 71.2137 24.0877 71.2137 19.9373C71.2137 15.4611 70.2266 12.0996 68.2525 9.85294C66.2782 7.6233 63.6912 6.50855 60.4917 6.50855C58.9089 6.50855 57.3261 6.81721 55.7433 7.43466C54.1435 8.06923 52.7735 8.83244 51.6332 9.7243V14.5092H60.2875Z" fill="white"/>
<path d="M104 43H47V49H104V43Z" fill="white"/>
<path d="M9.42083 66.9314V63.8358H17.6206V71.155C16.8238 71.9071 15.6671 72.5713 14.1505 73.1478C12.6425 73.7159 11.1131 74 9.56221 74C7.59149 74 5.87356 73.599 4.40839 72.7969C2.9432 71.9864 1.84218 70.8333 1.10531 69.3378C0.368435 67.8338 0 66.2003 0 64.4374C0 62.524 0.411281 60.8237 1.23384 59.3364C2.05639 57.8492 3.26023 56.7088 4.84536 55.9149C6.0535 55.305 7.55723 55 9.35657 55C11.6957 55 13.5207 55.4804 14.8317 56.4412C16.1511 57.3938 16.9994 58.714 17.3764 60.4017L13.5979 61.0911C13.3323 60.1887 12.831 59.4784 12.0941 58.9605C11.3658 58.434 10.4533 58.1708 9.35657 58.1708C7.69432 58.1708 6.37052 58.6847 5.38517 59.7124C4.40839 60.7401 3.91999 62.2649 3.91999 64.287C3.91999 66.4677 4.41696 68.1053 5.41087 69.1999C6.40479 70.286 7.70718 70.8292 9.31801 70.8292C10.1149 70.8292 10.9117 70.6788 11.7086 70.378C12.514 70.0689 13.2037 69.697 13.7778 69.2626V66.9314H9.42083ZM21.1422 73.6867V55.3133H35.1128V58.4215H24.9466V62.4948H34.4059V65.5904H24.9466V70.5911H35.4726V73.6867H21.1422ZM42.94 73.6867V58.4215H37.3491V55.3133H52.3222V58.4215H46.7442V73.6867H42.94ZM69.8272 73.6867H65.6887L64.0436 69.5132H56.5121L54.957 73.6867H50.9213L58.26 55.3133H62.2828L69.8272 73.6867ZM62.8227 66.4175L60.2265 59.5996L57.6816 66.4175H62.8227ZM71.8708 73.6867V55.3133H79.8779C81.8914 55.3133 83.3522 55.4804 84.2605 55.8147C85.1774 56.1405 85.91 56.7254 86.4584 57.5693C87.0067 58.4132 87.2809 59.3782 87.2809 60.4643C87.2809 61.843 86.8653 62.9835 86.0341 63.886C85.2031 64.7799 83.9606 65.3439 82.307 65.5779C83.1295 66.0458 83.8064 66.5597 84.3377 67.1194C84.8774 67.6792 85.6014 68.6736 86.5097 70.1022L88.8103 73.6867H84.2605L81.5102 69.6887C80.5333 68.2599 79.865 67.3618 79.5052 66.994C79.1453 66.6181 78.7639 66.3633 78.3612 66.2296C77.9586 66.0875 77.3202 66.0165 76.4463 66.0165H75.6751V73.6867H71.8708ZM75.6751 63.0839H78.4897C80.3148 63.0839 81.4544 63.0086 81.9085 62.8581C82.3627 62.7078 82.7182 62.4487 82.9753 62.0811C83.2323 61.7135 83.3609 61.2539 83.3609 60.7025C83.3609 60.0842 83.1895 59.5871 82.8467 59.2111C82.5126 58.8267 82.037 58.5845 81.4201 58.4842C81.1117 58.4425 80.1863 58.4215 78.644 58.4215H75.6751V63.0839ZM90.1083 64.6128C90.1083 62.7412 90.3954 61.1705 90.9695 59.9004C91.3979 58.9646 91.9805 58.1249 92.7174 57.3812C93.4629 56.6376 94.2768 56.0862 95.1593 55.727C96.3333 55.2423 97.6871 55 99.2208 55C101.997 55 104.216 55.8398 105.878 57.5191C107.549 59.1985 108.385 61.5338 108.385 64.5251C108.385 67.4913 107.558 69.814 105.904 71.4934C104.25 73.1645 102.04 74 99.2721 74C96.4703 74 94.2426 73.1687 92.5888 71.506C90.9352 69.8349 90.1083 67.5372 90.1083 64.6128ZM94.0284 64.4875C94.0284 66.568 94.521 68.1471 95.5065 69.225C96.4918 70.2945 97.7426 70.8292 99.2594 70.8292C100.776 70.8292 102.018 70.2986 102.987 69.2375C103.963 68.168 104.452 66.568 104.452 64.4374C104.452 62.3318 103.976 60.7609 103.025 59.725C102.083 58.6889 100.827 58.1708 99.2594 58.1708C97.6913 58.1708 96.4274 58.6973 95.4679 59.7501C94.5081 60.7945 94.0284 62.3736 94.0284 64.4875ZM110.595 64.6128C110.595 62.7412 110.882 61.1705 111.456 59.9004C111.885 58.9646 112.467 58.1249 113.204 57.3812C113.95 56.6376 114.764 56.0862 115.646 55.727C116.82 55.2423 118.174 55 119.708 55C122.484 55 124.703 55.8398 126.365 57.5191C128.036 59.1985 128.871 61.5338 128.871 64.5251C128.871 67.4913 128.044 69.814 126.391 71.4934C124.737 73.1645 122.526 74 119.759 74C116.957 74 114.729 73.1687 113.076 71.506C111.422 69.8349 110.595 67.5372 110.595 64.6128ZM114.515 64.4875C114.515 66.568 115.008 68.1471 115.993 69.225C116.978 70.2945 118.229 70.8292 119.746 70.8292C121.263 70.8292 122.505 70.2986 123.473 69.2375C124.45 68.168 124.938 66.568 124.938 64.4374C124.938 62.3318 124.463 60.7609 123.512 59.725C122.569 58.6889 121.314 58.1708 119.746 58.1708C118.178 58.1708 116.914 58.6973 115.955 59.7501C114.995 60.7945 114.515 62.3736 114.515 64.4875ZM131.802 73.6867V55.3133H137.495L140.914 67.8463L144.294 55.3133H150V73.6867H146.466V59.2236L142.726 73.6867H139.063L135.336 59.2236V73.6867H131.802Z" fill="white"/>
</svg>
