<svg width="1440" height="207" viewBox="0 0 1440 207" fill="none" xmlns="http://www.w3.org/2000/svg">
<path fill-rule="evenodd" clip-rule="evenodd" d="M1440 171.871L1400.4 151.41C1359.6 130.949 1280.4 90.0276 1200 94.1198C1119.6 98.212 1040.4 147.318 960 163.687C879.6 180.055 800.4 163.687 720 151.41C639.6 139.134 560.4 130.949 480 143.226C399.6 155.502 320.4 188.24 240 200.516C159.6 212.793 80.3999 204.608 39.5999 200.516L-5.72205e-05 196.424V-6.06764e-06H39.5999C80.3999 -6.06764e-06 159.6 -6.06764e-06 240 -6.06764e-06C320.4 -6.06764e-06 399.6 -6.06764e-06 480 -6.06764e-06C560.4 -6.06764e-06 639.6 -6.06764e-06 720 -6.06764e-06C800.4 -6.06764e-06 879.6 -6.06764e-06 960 -6.06764e-06C1040.4 -6.06764e-06 1119.6 -6.06764e-06 1200 -6.06764e-06C1280.4 -6.06764e-06 1359.6 -6.06764e-06 1400.4 -6.06764e-06H1440V171.871Z" fill="white"/>
</svg>
