<svg width="1440" height="128" viewBox="0 0 1440 128" fill="none" xmlns="http://www.w3.org/2000/svg">
<path fill-rule="evenodd" clip-rule="evenodd" d="M0 75.6685L18 82.2099C37.2 88.7514 74.4 101.834 110.4 93.1123C147.6 84.3904 184.8 53.8637 222 36.4199C258 18.976 295.2 14.6151 332.4 21.1565C369.6 27.6979 405.6 45.1418 442.8 45.1418C480 45.1418 517.2 27.6979 554.4 23.337C590.4 18.976 627.6 27.6979 664.8 40.7808C702 53.8637 738 71.3075 775.2 64.7661C812.4 58.2247 849.6 27.6979 885.6 12.4346C922.8 -2.82877 960 -2.82877 997.2 5.89315C1034.4 14.6151 1070.4 32.0589 1107.6 38.6003C1144.8 45.1418 1182 40.7808 1218 40.7808C1255.2 40.7808 1292.4 45.1418 1329.6 51.6832C1365.6 58.2247 1402.8 66.9466 1422 71.3075L1440 75.6685V128H1422C1402.8 128 1365.6 128 1329.6 128C1292.4 128 1255.2 128 1218 128C1182 128 1144.8 128 1107.6 128C1070.4 128 1034.4 128 997.2 128C960 128 922.8 128 885.6 128C849.6 128 812.4 128 775.2 128C738 128 702 128 664.8 128C627.6 128 590.4 128 554.4 128C517.2 128 480 128 442.8 128C405.6 128 369.6 128 332.4 128C295.2 128 258 128 222 128C184.8 128 147.6 128 110.4 128C74.4 128 37.2 128 18 128H0L0 75.6685Z" fill="#F43467" fill-opacity="0.5"/>
</svg>
