<svg width="1440" height="207" viewBox="0 0 1440 207" fill="none" xmlns="http://www.w3.org/2000/svg">
<path fill-rule="evenodd" clip-rule="evenodd" d="M0 35.129L39.6 55.5899C80.4 76.0507 159.6 116.972 240 112.88C320.4 108.788 399.6 59.682 480 43.3134C560.4 26.9447 639.6 43.3134 720 55.5899C800.4 67.8664 879.6 76.0507 960 63.7742C1040.4 51.4977 1119.6 18.7604 1200 6.48387C1280.4 -5.79263 1359.6 2.3917 1400.4 6.48387L1440 10.576V207H1400.4C1359.6 207 1280.4 207 1200 207C1119.6 207 1040.4 207 960 207C879.6 207 800.4 207 720 207C639.6 207 560.4 207 480 207C399.6 207 320.4 207 240 207C159.6 207 80.4 207 39.6 207H0L0 35.129Z" fill="white"/>
</svg>
