<svg width="100" height="500" viewBox="0 0 115 617" fill="none" xmlns="http://www.w3.org/2000/svg">
<path fill-rule="evenodd" clip-rule="evenodd" d="M95.07 0.131095L90.6743 7.84365C86.2795 16.0699 77.4889 32.0087 68.6975 47.4338C59.907 63.3726 51.1164 79.3114 55.5504 95.2288C59.9836 110.632 77.6421 126.528 73.2597 142.46C68.8774 158.392 42.4532 173.845 44.6831 189.766C46.913 205.687 77.7961 221.562 91.0465 237.465C104.296 252.854 99.9137 268.786 97.7354 284.714C95.5571 300.642 95.5821 316.053 95.6079 331.977C95.6337 347.902 95.6595 363.826 86.8681 379.252C78.0776 395.19 60.4706 411.143 45.0678 427.093C29.6649 443.042 16.4654 458.475 14.2871 474.403C12.1088 490.331 20.951 506.241 40.8128 521.62C60.6754 537.512 91.5586 553.387 104.809 569.29C118.058 584.679 113.676 600.611 111.485 608.833L109.294 616.542L25.4621 616.678L3.30505 616.657C-1.86938 600.36 3.44561 584.865 3.42063 569.454C3.39482 553.53 3.36901 537.605 3.3432 521.681C3.31822 506.27 3.29241 490.345 3.2666 474.421C3.24079 458.496 3.21582 443.085 3.19001 427.161C3.1642 411.236 3.13839 395.312 3.11258 379.387C3.0876 363.976 3.06179 348.052 3.03598 332.127C3.01017 316.203 2.98519 300.792 2.95938 284.868C2.93357 268.943 2.90776 253.019 2.88278 237.608C2.85697 221.683 2.83116 205.759 2.80535 189.834C2.77954 173.91 2.75456 158.499 2.72875 142.574C2.70294 126.65 2.67713 110.725 2.65215 95.3145C2.62634 79.39 2.60053 63.4655 2.57472 47.541C2.54974 32.1302 2.52393 16.2056 2.51061 7.98655L2.49812 0.281135L95.07 0.131095Z" fill="rgba(245, 142, 2, 0.2)"/>
</svg>
